<svg width="322" height="326" viewBox="0 0 322 326" fill="none" xmlns="http://www.w3.org/2000/svg">
<g clip-path="url(#clip0_1_14079)">
<path d="M157.999 323.919C244.867 323.919 315.288 253.558 315.288 166.763C315.288 79.9679 244.867 9.60669 157.999 9.60669C71.1314 9.60669 0.710938 79.9679 0.710938 166.763C0.710938 253.558 71.1314 323.919 157.999 323.919Z" stroke="url(#paint0_linear_1_14079)"/>
<path d="M158.001 275.003C217.83 275.003 266.331 226.543 266.331 166.763C266.331 106.984 217.83 58.5239 158.001 58.5239C98.1712 58.5239 49.6699 106.984 49.6699 166.763C49.6699 226.543 98.1712 275.003 158.001 275.003Z" stroke="url(#paint1_linear_1_14079)"/>
<path d="M158 228.309C192.02 228.309 219.598 200.754 219.598 166.763C219.598 132.772 192.02 105.217 158 105.217C123.981 105.217 96.4023 132.772 96.4023 166.763C96.4023 200.754 123.981 228.309 158 228.309Z" stroke="url(#paint2_linear_1_14079)"/>
<path d="M158.001 197.892C175.207 197.892 189.156 183.955 189.156 166.763C189.156 149.571 175.207 135.634 158.001 135.634C140.794 135.634 126.846 149.571 126.846 166.763C126.846 183.955 140.794 197.892 158.001 197.892Z" fill="url(#paint3_linear_1_14079)" fill-opacity="0.6"/>
<mask id="mask0_1_14079" style="mask-type:luminance" maskUnits="userSpaceOnUse" x="146" y="155" width="24" height="23">
<path d="M169.548 155.17H146.752V177.948H169.548V155.17Z" fill="white"/>
</mask>
<g mask="url(#mask0_1_14079)">
<path d="M162.9 162.764V159.917C162.9 159.665 162.8 159.423 162.622 159.245C162.444 159.067 162.202 158.967 161.951 158.967H152.452C151.948 158.967 151.465 159.166 151.108 159.524C150.752 159.88 150.553 160.362 150.553 160.865M150.553 160.865C150.553 161.369 150.752 161.851 151.108 162.207C151.465 162.563 151.948 162.764 152.452 162.764H163.85C164.102 162.764 164.343 162.863 164.521 163.041C164.699 163.219 164.801 163.461 164.801 163.712V166.559M150.553 160.865V172.253C150.553 172.757 150.752 173.24 151.108 173.596C151.465 173.952 151.948 174.152 152.452 174.152H163.85C164.102 174.152 164.343 174.051 164.521 173.873C164.699 173.695 164.801 173.455 164.801 173.203V170.356" stroke="#FFE34B" stroke-linecap="round" stroke-linejoin="round"/>
<path d="M165.75 166.559V170.356H161.951C161.447 170.356 160.964 170.155 160.608 169.799C160.252 169.443 160.051 168.961 160.051 168.457C160.051 167.954 160.252 167.472 160.608 167.116C160.964 166.758 161.447 166.559 161.951 166.559H165.75Z" stroke="#FFE34B" stroke-linecap="round" stroke-linejoin="round"/>
</g>
<path d="M35.6052 295.726C54.0408 295.726 68.9858 280.794 68.9858 262.373C68.9858 243.953 54.0408 229.021 35.6052 229.021C17.1696 229.021 2.22461 243.953 2.22461 262.373C2.22461 280.794 17.1696 295.726 35.6052 295.726Z" fill="#FFE34B"/>
<path d="M35.62 242.365C46.4396 242.365 55.2107 251.128 55.2107 261.939C55.2107 272.75 46.4396 281.513 35.62 281.513C24.8004 281.513 16.0293 272.75 16.0293 261.939C16.0293 251.128 24.8004 242.365 35.62 242.365Z" stroke="black" stroke-width="0.5"/>
<path d="M35.1719 250.018C36.1962 249.88 37.3249 250.147 38.5781 251.029V251.028C40.8589 252.637 43.2643 252.822 46.084 253.339V253.34C47.205 253.548 47.8514 254.198 48.1191 255.173C48.3955 256.18 48.2712 257.568 47.7061 259.2L47.5088 259.326L47.7334 259.689C48.6104 261.181 49.0042 262.669 48.7656 263.947C48.5325 265.195 47.6757 266.345 45.8164 267.154C42.2085 268.722 40.2269 271.099 38.4902 272.518C37.6094 273.238 36.7965 273.718 35.8418 273.856C34.8882 273.994 33.7165 273.8 32.1055 273.014C31.2209 272.578 30.4267 271.981 29.7637 271.252L29.5039 270.957L29.3867 270.823L29.2129 270.792L28.9717 270.751H28.9707C26.7775 270.363 25.1044 269.595 24.2676 268.298C23.4472 267.027 23.3277 265.077 24.6553 262.056C25.2784 260.64 25.6028 259.237 25.8564 257.959C26.1143 256.662 26.2921 255.539 26.6201 254.583C26.9412 253.648 27.3855 252.943 28.1289 252.47C28.8831 251.99 30.0158 251.703 31.8057 251.761H32.0225L32.166 251.626C33.1343 250.719 34.136 250.157 35.1719 250.018ZM41.9551 257.992C40.2455 254.225 35.6752 253.167 32.0557 255.498L31.709 255.734C28.4281 258.088 27.3143 262.504 29.5293 265.957V265.958C30.0507 266.774 30.7289 267.48 31.5244 268.033C32.2207 268.518 32.9948 268.879 33.8125 269.098L34.165 269.183C35.1124 269.389 36.0911 269.406 37.0449 269.232C37.999 269.058 38.9095 268.696 39.7227 268.169C43.1911 265.921 43.5933 261.601 41.9551 257.992Z" fill="black" stroke="black"/>
<path d="M259.256 88.9404C283.836 88.9404 303.763 69.0305 303.763 44.4704C303.763 19.9104 283.836 0.000488281 259.256 0.000488281C234.675 0.000488281 214.748 19.9104 214.748 44.4704C214.748 69.0305 234.675 88.9404 259.256 88.9404Z" fill="#FFE34B"/>
<path d="M273.667 25.7672C273.702 25.766 273.736 25.7767 273.766 25.7964C273.781 25.806 273.792 25.8177 273.803 25.8311L273.828 25.8771L273.833 25.8895L282.197 43.4382L282.198 43.4424C282.218 43.4787 282.224 43.5204 282.217 43.5605C282.214 43.5806 282.207 43.5998 282.197 43.6176L282.161 43.6649L282.16 43.6663L259.574 65.2896C259.534 65.3244 259.484 65.3439 259.432 65.3439L259.356 65.3299L259.291 65.2896L236.718 43.6663L236.716 43.6649L236.678 43.6176C236.669 43.5999 236.662 43.5806 236.659 43.5605C236.655 43.5407 236.655 43.5204 236.659 43.5007L236.678 43.4438L236.679 43.4382L245.043 25.8895L245.053 25.8658C245.067 25.8403 245.087 25.8173 245.111 25.8005C245.141 25.7806 245.177 25.7689 245.211 25.7672L273.662 25.7686L273.667 25.7672Z" stroke="black"/>
<path d="M272.82 42.5171C273.141 42.7604 273.206 42.9378 273.206 43.0249C273.206 43.1294 273.113 43.3679 272.582 43.6919C272.192 43.9302 271.642 44.1629 270.947 44.3823C271.279 44.263 271.574 44.1375 271.822 44.0024C272.094 43.8546 272.338 43.6844 272.518 43.4849C272.7 43.2827 272.841 43.0231 272.841 42.7144C272.841 42.6461 272.833 42.5804 272.82 42.5171ZM269.842 31.5513V35.8833H261.844V39.7485H261.829V43.7036C261.384 43.7305 260.619 43.7671 259.492 43.7671C258.433 43.7671 257.588 43.7318 257.061 43.7026V35.8833H249.062V31.5513H269.842ZM246.062 42.4966C246.045 42.5703 246.035 42.6475 246.035 42.728C246.035 43.0374 246.177 43.2975 246.36 43.4995C246.541 43.6986 246.784 43.8681 247.057 44.0151C247.219 44.1029 247.402 44.1861 247.602 44.2671C247.061 44.08 246.624 43.8854 246.298 43.686C245.767 43.3616 245.672 43.1201 245.672 43.0112C245.672 42.9206 245.739 42.7406 246.062 42.4966ZM257.061 45.6968C257.604 45.7183 258.439 45.7388 259.479 45.7388C260.619 45.7388 261.381 45.7169 261.844 45.6978V56.8345H257.061V45.6968Z" fill="black" stroke="black"/>
<path d="M243.636 249.127C254.653 249.127 263.583 240.204 263.583 229.197C263.583 218.19 254.653 209.267 243.636 209.267C232.62 209.267 223.689 218.19 223.689 229.197C223.689 240.204 232.62 249.127 243.636 249.127Z" fill="#FFF3B0"/>
<path d="M235.088 230.264L243.399 217.808L251.711 230.264L243.399 242.721L235.088 230.264Z" stroke="black" stroke-linecap="round" stroke-linejoin="round"/>
<path d="M235.088 230.264L243.399 226.112L251.711 230.264L243.399 233.032L235.088 230.264Z" stroke="black" stroke-linecap="round" stroke-linejoin="round"/>
<path d="M59.8397 128.123C62.9873 128.123 65.5389 125.573 65.5389 122.428C65.5389 119.284 62.9873 116.734 59.8397 116.734C56.6922 116.734 54.1406 119.284 54.1406 122.428C54.1406 125.573 56.6922 128.123 59.8397 128.123Z" fill="white"/>
<path d="M151.027 280.446C154.175 280.446 156.726 277.897 156.726 274.752C156.726 271.607 154.175 269.057 151.027 269.057C147.88 269.057 145.328 271.607 145.328 274.752C145.328 277.897 147.88 280.446 151.027 280.446Z" fill="#58585C"/>
<path d="M316.301 160.865C319.448 160.865 322 158.315 322 155.17C322 152.026 319.448 149.476 316.301 149.476C313.153 149.476 310.602 152.026 310.602 155.17C310.602 158.315 313.153 160.865 316.301 160.865Z" fill="white"/>
<path d="M95.4608 28.4721C98.6084 28.4721 101.16 25.9227 101.16 22.7778C101.16 19.6329 98.6084 17.0835 95.4608 17.0835C92.3133 17.0835 89.7617 19.6329 89.7617 22.7778C89.7617 25.9227 92.3133 28.4721 95.4608 28.4721Z" fill="#3B3B42"/>
</g>
<defs>
<linearGradient id="paint0_linear_1_14079" x1="-0.00145191" y1="166.763" x2="316" y2="166.763" gradientUnits="userSpaceOnUse">
<stop stop-color="#E1DCC3" stop-opacity="0.1"/>
<stop offset="0.5" stop-color="#E1DCC3"/>
<stop offset="0.971154" stop-color="#EFE9CF" stop-opacity="0.1"/>
</linearGradient>
<linearGradient id="paint1_linear_1_14079" x1="48.9577" y1="166.763" x2="267.043" y2="166.763" gradientUnits="userSpaceOnUse">
<stop stop-color="#E1DCC3" stop-opacity="0.1"/>
<stop offset="0.5" stop-color="#E1DCC3"/>
<stop offset="0.971154" stop-color="#EFE9CF" stop-opacity="0.1"/>
</linearGradient>
<linearGradient id="paint2_linear_1_14079" x1="95.6905" y1="166.763" x2="220.312" y2="166.763" gradientUnits="userSpaceOnUse">
<stop stop-color="#E1DCC3" stop-opacity="0.1"/>
<stop offset="0.5" stop-color="#E1DCC3"/>
<stop offset="0.971154" stop-color="#EFE9CF" stop-opacity="0.1"/>
</linearGradient>
<linearGradient id="paint3_linear_1_14079" x1="158.001" y1="156.363" x2="89.1075" y2="156.733" gradientUnits="userSpaceOnUse">
<stop stop-color="#090A16"/>
<stop offset="1" stop-color="#E8E2C9" stop-opacity="0.12"/>
</linearGradient>
<clipPath id="clip0_1_14079">
<rect width="322" height="326" fill="white" transform="translate(0 0.000488281)"/>
</clipPath>
</defs>
</svg>
