<svg width="1440" height="499" viewBox="0 0 1440 499" fill="none" xmlns="http://www.w3.org/2000/svg">
<g filter="url(#filter0_f_1_24587)">
<path d="M280.655 258.2V212.6L497.313 470H396.412L229.276 266H265.179L97.4245 470H-1L216.277 213.8V257L14.4756 20H115.995L268.894 205.4H231.752L383.413 20H481.837L280.655 258.2Z" fill="#FFE34B" fill-opacity="0.05"/>
<path d="M863.861 470L850.242 344L866.337 300.2L850.242 257L863.861 130.4H946.81L928.239 300.2L946.81 470H863.861ZM888.622 300.2C880.781 335.8 867.781 367 849.623 393.8C831.465 420.6 808.974 441.4 782.15 456.2C755.738 471 726.232 478.4 693.63 478.4C659.377 478.4 629.045 471 602.634 456.2C576.222 441 555.588 420 540.731 393.2C525.875 366.4 518.447 335.4 518.447 300.2C518.447 264.6 525.875 233.6 540.731 207.2C555.588 180.4 576.222 159.6 602.634 144.8C629.045 129.6 659.377 122 693.63 122C726.232 122 755.738 129.4 782.15 144.2C808.974 159 831.465 179.8 849.623 206.6C868.194 233 881.193 264.2 888.622 300.2ZM600.157 300.2C600.157 323 604.903 343.2 614.395 360.8C624.299 378 637.711 391.6 654.631 401.6C671.551 411.2 690.947 416 712.819 416C735.104 416 755.738 411.2 774.722 401.6C793.705 391.6 810.419 378 824.862 360.8C839.719 343.2 851.48 323 860.147 300.2C851.48 277.4 839.719 257.4 824.862 240.2C810.419 222.6 793.705 209 774.722 199.4C755.738 189.4 735.104 184.4 712.819 184.4C690.947 184.4 671.551 189.4 654.631 199.4C637.711 209 624.299 222.6 614.395 240.2C604.903 257.4 600.157 277.4 600.157 300.2Z" fill="#FFE34B" fill-opacity="0.05"/>
<path d="M1201.91 478.4C1169.73 478.4 1142.28 472 1119.58 459.2C1097.3 446.4 1080.17 428 1068.21 404C1056.24 380 1050.25 351.4 1050.25 318.2V130.4H1130.73V306.2C1130.73 341.4 1138.98 368.2 1155.49 386.6C1172.41 404.6 1196.55 413.6 1227.91 413.6C1250.61 413.6 1270.01 408.8 1286.1 399.2C1302.61 389.6 1315.4 376 1324.48 358.4C1333.56 340.4 1338.1 319.6 1338.1 296L1365.96 311C1362.65 345.8 1353.57 375.8 1338.72 401C1323.86 425.8 1304.67 445 1281.15 458.6C1257.63 471.8 1231.21 478.4 1201.91 478.4ZM1358.53 470L1338.1 347.6V130.4H1418.57V359.6L1439 470H1358.53Z" fill="#FFE34B" fill-opacity="0.05"/>
</g>
<defs>
<filter id="filter0_f_1_24587" x="-21" y="0" width="1480" height="498.4" filterUnits="userSpaceOnUse" color-interpolation-filters="sRGB">
<feFlood flood-opacity="0" result="BackgroundImageFix"/>
<feBlend mode="normal" in="SourceGraphic" in2="BackgroundImageFix" result="shape"/>
<feGaussianBlur stdDeviation="10" result="effect1_foregroundBlur_1_24587"/>
</filter>
</defs>
</svg>
